<?xml version="1.0" encoding="utf-8"?>
<!-- Generator: Adobe Illustrator 22.1.0, SVG Export Plug-In . SVG Version: 6.00 Build 0)  -->
<svg version="1.1" id="Capa_1" xmlns="http://www.w3.org/2000/svg" xmlns:xlink="http://www.w3.org/1999/xlink" x="0px" y="0px"
	 viewBox="0 0 471.8 471.8" style="enable-background:new 0 0 471.8 471.8;" xml:space="preserve">
<style type="text/css">
	.st0{fill:#1CBBB4;}
</style>
<g>
	<g>
		<path class="st0" d="M434.7,124c0-22.2-18-40.3-40.2-40.3H40.2C18,83.7,0,101.8,0,124v35.2h434.7V124z"/>
		<path class="st0" d="M410.9,275.8l-26.5,0l0-26.5c0-1.4-1.1-2.5-2.5-2.5h-20c-0.7,0-1.3,0.3-1.8,0.7c-0.5,0.5-0.7,1.1-0.7,1.8
			l0,26.5l-26.5,0c-1.4,0-2.5,1.1-2.5,2.5v20c0,0.7,0.3,1.3,0.7,1.8c0.5,0.5,1.1,0.7,1.8,0.7l26.5,0l0,26.5c0,0.7,0.3,1.3,0.7,1.8
			c0.5,0.5,1.1,0.7,1.8,0.7h20c1.4,0,2.5-1.1,2.5-2.5l0-26.5l26.5,0c0.7,0,1.3-0.3,1.8-0.7c0.5-0.5,0.7-1.1,0.7-1.8v-20
			C413.4,276.9,412.3,275.8,410.9,275.8z"/>
		<path class="st0" d="M372,188.5c-18.2,0-35.3,4.9-50,13.5H0v122.1c0,22.2,18,40.3,40.2,40.3h267.2c17.4,14.8,40,23.8,64.5,23.8
			c55,0,99.8-44.8,99.8-99.8C471.8,233.3,427,188.5,372,188.5z M148.6,309.2c0,2.9-2.3,5.2-5.2,5.2H63.9c-2.9,0-5.2-2.3-5.2-5.2
			v-15.7c0-2.9,2.3-5.2,5.2-5.2h79.6c2.9,0,5.2,2.3,5.2,5.2V309.2z M372,351.5c-34.9,0-63.2-28.3-63.2-63.3S337.1,225,372,225
			c34.9,0,63.2,28.3,63.2,63.2S407,351.5,372,351.5z"/>
	</g>
</g>
</svg>
