<?xml version="1.0" encoding="utf-8"?>
<!-- Generator: Adobe Illustrator 22.1.0, SVG Export Plug-In . SVG Version: 6.00 Build 0)  -->
<svg version="1.1" id="Layer_1" xmlns="http://www.w3.org/2000/svg" xmlns:xlink="http://www.w3.org/1999/xlink" x="0px" y="0px"
	 viewBox="0 0 22 22" style="enable-background:new 0 0 22 22;" xml:space="preserve">
<style type="text/css">
	.st0{fill:#FFFFFF;}
	.st1{fill:#757575;}
</style>
<g>
	<path class="st0" d="M21,19c0-3.9-3.1-7-7-7H8c-3.9,0-7,3.1-7,7v2h20V19z M3,19c0-2.8,2.2-5,5-5h6c2.8,0,5,2.2,5,5H3z"/>
	<path class="st0" d="M16,6c0-2.8-2.2-5-5-5C8.2,1,6,3.2,6,6s2.2,5,5,5C13.8,11,16,8.8,16,6z M8,6c0-1.7,1.3-3,3-3c1.7,0,3,1.3,3,3
		s-1.3,3-3,3C9.3,9,8,7.7,8,6z"/>
</g>
</svg>
