<?xml version="1.0" encoding="utf-8"?>
<!-- Generator: Adobe Illustrator 22.1.0, SVG Export Plug-In . SVG Version: 6.00 Build 0)  -->
<svg version="1.1" id="Layer_1" xmlns="http://www.w3.org/2000/svg" xmlns:xlink="http://www.w3.org/1999/xlink" x="0px" y="0px"
	 viewBox="0 0 67.6 9.2" style="enable-background:new 0 0 67.6 9.2;" xml:space="preserve">
<style type="text/css">
	.st0{clip-path:url(#SVGID_2_);fill:#FFFFFF;}
</style>
<g>
	<defs>
		<rect id="SVGID_1_" y="0" width="67.6" height="9.2"/>
	</defs>
	<clipPath id="SVGID_2_">
		<use xlink:href="#SVGID_1_"  style="overflow:visible;"/>
	</clipPath>
	<path class="st0" d="M19,5.2c0-1.7,0-3.2,0-4.1h0c-0.4,1.2-2.2,5.1-3.5,7.9h-0.7c-1-2.2-2.9-6.7-3.4-7.9h0c0.1,1,0.1,2.8,0.1,4.3
		v3.6h-0.8V0.5h1.2c1.3,2.9,3.1,6.9,3.3,7.5h0c0.4-0.9,2.2-4.9,3.4-7.5h1.2v8.6H19V5.2z M27.6,6c0,1.6-1,3.2-3.1,3.2
		c-1.9,0-3.1-1.5-3.1-3.2c0-1.8,1.2-3.2,3.1-3.2C26.5,2.9,27.6,4.4,27.6,6 M22.3,6.1c0,1.2,0.8,2.5,2.3,2.5c1.5,0,2.3-1.1,2.3-2.5
		c0-1.3-0.9-2.5-2.3-2.5C23,3.6,22.3,4.7,22.3,6.1 M29.3,0h0.8v4.1c0.3-0.5,1-1.2,2.3-1.2c1.7,0,2.9,1.3,2.9,3.1
		c0,2-1.2,3.3-2.9,3.3c-1.4,0-2-0.6-2.3-1.2c0,0.4,0,0.8,0,1h-0.7c0-0.7,0-1.4,0-2.1V0z M34.5,6c0-1.1-0.6-2.4-2.2-2.4
		C30.8,3.6,30,4.7,30,6c0,1.6,0.9,2.5,2.3,2.5C33.9,8.5,34.5,7.3,34.5,6 M36.9,0h0.8v1.3h-0.8V0z M36.9,3h0.8v6h-0.8V3z M39.8,0h0.8
		v9.1h-0.8V0z M42.9,6.2c0.1,1.4,1,2.3,2.3,2.3c1,0,1.6-0.5,2-1.1H48c-0.3,0.8-1.1,1.8-2.9,1.8c-2,0-3-1.5-3-3.2
		c0-1.9,1.2-3.2,3-3.2c2.3,0,3,1.7,3,3.1c0,0.1,0,0.1,0,0.2H42.9z M47.3,5.6c-0.1-0.8-0.5-2-2.2-2c-1.3,0-2.1,0.9-2.2,2H47.3z
		 M49.2,9.1V0.9H52c0.7,3,0.9,4.1,1,4.4H53c-0.1-1.1-0.2-2.7-0.2-3.8V0.9h2.3v8.1h-2.8c-0.8-3.6-0.9-4.3-1-4.6h-0.1
		c0.1,1,0.1,2.9,0.1,4v0.6H49.2z M61.2,5.9h-2.5v1.3h2.9l-0.3,1.9h-5.1V0.9h5.1v1.9h-2.6V4h2.5V5.9z M63.5,2.8h-1.6V0.9h5.7v1.9H66
		v6.2h-2.6V2.8z M3.4,9.1h5.3V0.5L3.4,9.1z M0,9.1h3.4V3.6L0,9.1z"/>
</g>
</svg>
